# 3ds Max Wavefront OBJ Exporter v0.97b - (c)2007 guruware
# File Created: 16.11.2011 10:17:02

mtllib track_eDT_env_locomotive_01.mtl

#
# object track_eDT_env_locomotive_01
#

v  68.4591 -0.0003 31.2785
v  72.5918 25.1170 37.1258
v  -73.6797 25.1170 37.1258
v  -65.4894 -0.0003 31.2785
v  -70.8049 -0.0003 -0.0000
v  74.8626 -0.0003 -0.0000
v  78.9952 25.1170 -0.0000
v  63.1174 72.9620 -0.0000
v  -71.3768 72.9620 -0.0000
v  -66.0613 66.4025 29.2005
v  56.7140 66.4025 29.2005
v  -78.9952 25.1170 -0.0000
v  68.4591 -0.0003 -31.2785
v  -65.4894 -0.0003 -31.2785
v  -73.6797 25.1170 -37.1258
v  72.5918 25.1170 -37.1258
v  56.7140 66.4025 -29.2005
v  -66.0613 66.4025 -29.2005
# 18 vertices

vn 0.0000 -0.2267 0.9740
vn 0.0000 -0.0359 0.9994
vn 0.0000 -0.0093 1.0000
vn 0.0000 -1.0000 -0.0000
vn 0.9838 -0.1795 -0.0000
vn 0.9951 0.0989 -0.0000
vn 0.9779 0.1107 0.1775
vn 0.9592 -0.2035 0.1964
vn 0.0000 1.0000 0.0000
vn 0.0000 1.0000 -0.0000
vn 0.0000 0.6955 0.7185
vn 0.0000 0.6767 0.7363
vn -0.9981 -0.0618 -0.0000
vn -0.9871 -0.0607 0.1484
vn -0.9677 0.1749 0.1813
vn -0.9876 0.1573 -0.0000
vn 0.9491 0.3150 -0.0000
vn 0.9151 0.3348 0.2248
vn -0.9464 -0.3231 -0.0000
vn -0.9274 -0.3391 0.1576
vn 0.0000 -0.2267 -0.9740
vn 0.0000 -0.0093 -1.0000
vn 0.0000 -0.0359 -0.9994
vn 0.9592 -0.2035 -0.1964
vn 0.9779 0.1107 -0.1775
vn 0.0000 0.6767 -0.7363
vn 0.0000 0.6955 -0.7185
vn -0.9677 0.1749 -0.1813
vn -0.9871 -0.0607 -0.1484
vn 0.9151 0.3348 -0.2248
vn -0.9274 -0.3391 -0.1576
# 31 vertex normals

vt 0.1669 0.0314 0.0000
vt 0.1707 0.0552 0.0000
vt 0.0359 0.0552 0.0000
vt 0.0434 0.0314 0.0000
vt 0.0385 0.0026 0.0000
vt 0.1728 0.0026 0.0000
vt 0.2055 0.0321 0.0000
vt 0.2064 0.0552 0.0000
vt 0.1713 0.0551 0.0000
vt 0.1757 0.0321 0.0000
vt 0.1619 0.1215 0.0000
vt 0.0380 0.1215 0.0000
vt 0.0429 0.0939 0.0000
vt 0.1560 0.0939 0.0000
vt 0.0012 0.0547 0.0000
vt 0.0350 0.0548 0.0000
vt 0.0290 0.0913 0.0000
vt 0.0023 0.0972 0.0000
vt 0.2031 0.1009 0.0000
vt 0.1751 0.0947 0.0000
vt 0.0024 0.0316 0.0000
vt 0.0310 0.0315 0.0000
# 22 texture coords

g track_eDT_env_locomotive_01
usemtl 02___Default
s 2
f 1/1/1 2/2/2 3/3/3 4/4/1 
s 4
f 5/5/4 6/6/4 1/1/4 4/4/4 
s 1
f 6/7/5 7/8/6 2/9/7 1/10/8 
s 2
f 8/11/9 9/12/10 10/13/11 11/14/12 
s 1
f 12/15/13 3/16/14 10/17/15 9/18/16 
s 2
f 11/14/12 10/13/11 3/3/3 2/2/2 
s 1
f 7/8/6 8/19/17 11/20/18 2/9/7 
f 5/21/19 4/22/20 3/16/14 12/15/13 
s 2
f 13/1/21 14/4/21 15/3/22 16/2/23 
s 4
f 5/5/4 14/4/4 13/1/4 6/6/4 
s 1
f 6/7/5 13/10/24 16/9/25 7/8/6 
s 2
f 8/11/9 17/14/26 18/13/27 9/12/10 
s 1
f 12/15/13 9/18/16 18/17/28 15/16/29 
s 2
f 17/14/26 16/2/23 15/3/22 18/13/27 
s 1
f 7/8/6 16/9/25 17/20/30 8/19/17 
f 5/21/19 12/15/13 15/16/29 14/22/31 
# 16 polygons

